<?xml version="1.0" encoding="UTF-8" standalone="no"?><svg xmlns="http://www.w3.org/2000/svg" xmlns:xlink="http://www.w3.org/1999/xlink" clip-rule="evenodd" fill="#000000" fill-rule="evenodd" height="120.1" preserveAspectRatio="xMidYMid meet" stroke-linejoin="round" stroke-miterlimit="2" version="1" viewBox="0.1 0.5 418.3 120.1" width="418.3" zoomAndPan="magnify"><g><g><g id="change1_3"><path d="M1255.29,1511.96L1893.03,1099.38C1893.03,1099.38 2530.77,1511.96 2530.77,1511.96C2537.37,1516.23 2546.2,1514.34 2550.47,1507.74C2554.74,1501.14 2552.85,1492.31 2546.24,1488.04C2546.24,1488.04 1900.77,1070.46 1900.77,1070.46C1896.06,1067.41 1890,1067.41 1885.3,1070.46C1885.3,1070.46 1239.82,1488.04 1239.82,1488.04C1233.22,1492.31 1231.33,1501.14 1235.6,1507.74C1239.87,1514.34 1248.69,1516.23 1255.29,1511.96Z" fill="#fda779" transform="matrix(.26753 0 0 .26753 -329.362 -285.025)"/></g><g id="change1_1"><path d="M1765.71,1183.2L1892.97,1100.86C1892.97,1100.86 2547.09,1529.98 2547.09,1529.98C2554.22,1534.66 2563.81,1532.67 2568.49,1525.53C2573.16,1518.4 2571.17,1508.82 2564.04,1504.14C2564.04,1504.14 1901.51,1069.5 1901.51,1069.5C1896.39,1066.14 1889.78,1066.12 1884.64,1069.44C1884.64,1069.44 1828.3,1105.89 1748.92,1157.25C1741.76,1161.88 1739.7,1171.45 1744.34,1178.62C1748.97,1185.78 1758.55,1187.83 1765.71,1183.2Z" fill="#fda779" transform="matrix(.2466 0 0 .2466 -216.162 -260.115)"/></g><g id="change1_2"><path d="M1029.89,1738.52L1029.89,1723.8C1029.89,1722.73 1028.62,1721.86 1027.06,1721.86L1003.41,1721.86C1001.84,1721.86 1000.58,1722.73 1000.58,1723.8L1000.58,1749.71C1000.58,1750.78 1001.84,1751.65 1003.41,1751.65C1004.97,1751.65 1006.24,1750.78 1006.24,1749.71L1006.24,1725.74C1006.24,1725.74 1024.23,1725.74 1024.23,1725.74L1024.23,1738.52C1024.23,1739.59 1025.5,1740.46 1027.06,1740.46C1028.62,1740.46 1029.89,1739.59 1029.89,1738.52Z" fill="#fda779" transform="matrix(1.34238 0 0 1.95538 -1283.364 -3343.375)"/></g></g></g></svg>